<?xml version="1.0" encoding="UTF-8" standalone="no"?>
<!-- Created with Inkscape (http://www.inkscape.org/) -->

<svg
   version="1.1"
   id="svg741"
   xml:space="preserve"
   width="32"
   height="32"
   viewBox="0 0 32 32"
   xmlns="http://www.w3.org/2000/svg"
   xmlns:svg="http://www.w3.org/2000/svg"><defs
     id="defs745"><clipPath
       clipPathUnits="userSpaceOnUse"
       id="clipPath759"><path
         d="M 0,24 H 24 V 0 H 0 Z"
         id="path757" /></clipPath></defs><g
     id="g747"
     transform="matrix(1.3333333,0,0,-1.3333333,0,32)"><g
       id="g749"
       transform="translate(8,16.5)"><path
         d="M 0,0 H 8"
         style="fill:none;stroke:#fff;stroke-width:3;stroke-linecap:butt;stroke-linejoin:miter;stroke-miterlimit:10;stroke-dasharray:none;stroke-opacity:1"
         id="path751" /></g><g
       id="g753"><g
         id="g755"
         clip-path="url(#clipPath759)"><g
           id="g761"
           transform="translate(20.5,7)"><path
             d="M 0,0 C 0,-1.933 -1.567,-3.5 -3.5,-3.5 -5.433,-3.5 -7,-1.933 -7,0 -7,1.933 -5.433,3.5 -3.5,3.5 -1.567,3.5 0,1.933 0,0 Z"
             style="fill:none;stroke:#fff;stroke-width:3;stroke-linecap:butt;stroke-linejoin:miter;stroke-miterlimit:10;stroke-dasharray:none;stroke-opacity:1"
             id="path763" /></g><g
           id="g765"
           transform="translate(22.875,1.125)"><path
             d="M 0,0 -3,3"
             style="fill:none;stroke:#fff;stroke-width:3;stroke-linecap:butt;stroke-linejoin:miter;stroke-miterlimit:10;stroke-dasharray:none;stroke-opacity:1"
             id="path767" /></g><g
           id="g769"
           transform="translate(10.0791,3)"><path
             d="m 0,0 h -4.579 c -0.276,0 -0.5,0.225 -0.5,0.5 v 17 c 0,0.275 0.224,0.5 0.5,0.5 h 13.5 v -6.262 c 1.112,-0.287 2.131,-0.8 3,-1.499 V 21 h -16.5 c -1.93,0 -3.5,-1.57 -3.5,-3.5 v -17 c 0,-1.93 1.57,-3.5 3.5,-3.5 h 7.63 C 1.781,-2.296 0.727,-1.255 0,0"
             style="fill:#fff;fill-opacity:1;fill-rule:nonzero;stroke:none"
             id="path771" /></g></g></g></g></svg>
