<svg xml:space="preserve" width="32" height="32" xmlns="http://www.w3.org/2000/svg"><defs><clipPath clipPathUnits="userSpaceOnUse" id="a"><path d="M0 24h24V0H0Z"/></clipPath></defs><path d="M0 0h8" style="fill:none;stroke:#fff;stroke-width:3;stroke-linecap:butt;stroke-linejoin:miter;stroke-miterlimit:10;stroke-dasharray:none;stroke-opacity:1" transform="matrix(1.33333 0 0 -1.33333 10.667 10)"/><g clip-path="url(#a)" transform="matrix(1.33333 0 0 -1.33333 0 32)"><path d="M0 0a3.5 3.5 0 1 0-7 0 3.5 3.5 0 0 0 7 0Z" style="fill:none;stroke:#fff;stroke-width:3;stroke-linecap:butt;stroke-linejoin:miter;stroke-miterlimit:10;stroke-dasharray:none;stroke-opacity:1" transform="translate(20.5 7)"/><path d="m0 0-3 3" style="fill:none;stroke:#fff;stroke-width:3;stroke-linecap:butt;stroke-linejoin:miter;stroke-miterlimit:10;stroke-dasharray:none;stroke-opacity:1" transform="translate(22.875 1.125)"/><path d="M0 0h-4.579a.5.5 0 0 0-.5.5v17a.5.5 0 0 0 .5.5h13.5v-6.262a7.946 7.946 0 0 0 3-1.499V21h-16.5c-1.93 0-3.5-1.57-3.5-3.5V.5c0-1.93 1.57-3.5 3.5-3.5h7.63A8.034 8.034 0 0 0 0 0" style="fill:#fff;fill-opacity:1;fill-rule:nonzero;stroke:none" transform="translate(10.08 3)"/></g></svg>